<?xml version="1.0" encoding="utf-8"?><svg xmlns="http://www.w3.org/2000/svg" xmlns:xlink="http://www.w3.org/1999/xlink"><symbol viewBox="0 0 16 16" id="check_icon" xmlns="http://www.w3.org/2000/svg"><path fill-rule="evenodd" clip-rule="evenodd" d="M13.805 3.529c.26.26.26.682 0 .942L6.47 11.805a.667.667 0 01-.942 0L2.195 8.47a.667.667 0 11.943-.942L6 10.39l6.862-6.861c.26-.26.682-.26.943 0z"/></symbol><symbol viewBox="0 0 24 24" id="confirm-password_icon" xmlns="http://www.w3.org/2000/svg"><path d="M10 14a1.49 1.49 0 00-1 2.61V18a1 1 0 102 0v-1.39A1.49 1.49 0 0010 14zm5-4V8A5 5 0 005 8v2a3 3 0 00-3 3v7a3 3 0 003 3h10a3 3 0 003-3v-7a3 3 0 00-3-3zM7 8a3 3 0 116 0v2H7V8zm9 12a1 1 0 01-1 1H5a1 1 0 01-1-1v-7a1 1 0 011-1h10a1 1 0 011 1v7z"/><path d="M17.828 21H19a3 3 0 003-3v-7a3 3 0 00-3-3V6a5 5 0 00-9-3 5 5 0 012.273.547A3 3 0 0117 6v2h-2v2h4a1 1 0 011 1v7a1 1 0 01-1 1h-1v1a3 3 0 01-.172 1z"/></symbol><symbol viewBox="0 0 24 24" id="country_icon" xmlns="http://www.w3.org/2000/svg"><path d="M20.46 9.63A8.5 8.5 0 007.3 3.36a8.56 8.56 0 00-3.76 6.27A8.46 8.46 0 006 16.46l5.3 5.31a1 1 0 001.42 0L18 16.46a8.46 8.46 0 002.46-6.83zm-3.86 5.42l-4.6 4.6-4.6-4.6a6.49 6.49 0 01-1.87-5.22A6.57 6.57 0 018.42 5a6.47 6.47 0 017.16 0 6.569 6.569 0 012.89 4.81 6.491 6.491 0 01-1.87 5.24zM12 6a4.5 4.5 0 104.5 4.5A4.51 4.51 0 0012 6zm0 7a2.5 2.5 0 110-5 2.5 2.5 0 010 5z"/></symbol><symbol viewBox="0 0 24 24" id="email_icon" xmlns="http://www.w3.org/2000/svg"><path d="M19 4H5a3 3 0 00-3 3v10a3 3 0 003 3h14a3 3 0 003-3V7a3 3 0 00-3-3zm-.41 2l-5.88 5.88a1.002 1.002 0 01-1.42 0L5.41 6h13.18zM20 17a1 1 0 01-1 1H5a1 1 0 01-1-1V7.41l5.88 5.88a3 3 0 004.24 0L20 7.41V17z"/></symbol><symbol viewBox="0 0 24 24" id="first-name_icon" xmlns="http://www.w3.org/2000/svg"><path d="M15.71 12.71a6 6 0 10-7.42 0 10 10 0 00-6.22 8.18 1.006 1.006 0 102 .22 8 8 0 0115.9 0 1 1 0 001 .89h.11a1 1 0 00.88-1.1 10 10 0 00-6.25-8.19zM12 12a4 4 0 110-8 4 4 0 010 8z"/></symbol><symbol viewBox="0 0 24 24" id="password_icon" xmlns="http://www.w3.org/2000/svg"><path d="M12 13a1.49 1.49 0 00-1 2.61V17a1 1 0 002 0v-1.39A1.49 1.49 0 0012 13zm5-4V7A5 5 0 007 7v2a3 3 0 00-3 3v7a3 3 0 003 3h10a3 3 0 003-3v-7a3 3 0 00-3-3zM9 7a3 3 0 116 0v2H9V7zm9 12a1 1 0 01-1 1H7a1 1 0 01-1-1v-7a1 1 0 011-1h10a1 1 0 011 1v7z"/></symbol><symbol viewBox="0 0 24 24" id="phone_icon" xmlns="http://www.w3.org/2000/svg"><path d="M19.44 13c-.22 0-.45-.07-.67-.12a9.443 9.443 0 01-1.31-.39 2 2 0 00-2.48 1l-.22.45a12.18 12.18 0 01-2.66-2 12.18 12.18 0 01-2-2.66l.42-.28a2 2 0 001-2.48 10.32 10.32 0 01-.39-1.31c-.05-.22-.09-.45-.12-.68a3 3 0 00-3-2.49h-3a3 3 0 00-3 3.41 19 19 0 0016.52 16.46h.38a3 3 0 002.742-1.778 3 3 0 00.258-1.232v-3a3 3 0 00-2.47-2.9zm.5 6a1 1 0 01-.724.962c-.14.043-.29.056-.436.038A17 17 0 014.07 5.22a1.09 1.09 0 01.25-.82 1 1 0 01.75-.34h3a1 1 0 011 .79 11.301 11.301 0 00.61 2.36l-1.4.65a1 1 0 00-.49 1.33 14.49 14.49 0 007 7 1 1 0 00.76 0 1.002 1.002 0 00.57-.52l.62-1.4a13.79 13.79 0 001.58.46c.267.06.537.11.81.15a1 1 0 01.79 1l.02 3.12z"/></symbol><symbol viewBox="0 0 24 24" id="second-name_icon" xmlns="http://www.w3.org/2000/svg"><path d="M12.3 12.22A4.92 4.92 0 0014 8.5a5 5 0 00-10 0 4.92 4.92 0 001.7 3.72A8 8 0 001 19.5a1 1 0 102 0 6 6 0 1112 0 1 1 0 002 0 8 8 0 00-4.7-7.28zM9 11.5a3 3 0 110-6 3 3 0 010 6zm9.74.32A5 5 0 0015 3.5a1 1 0 100 2 3 3 0 013 3 3 3 0 01-1.5 2.59 1 1 0 00-.05 1.7l.39.26.13.07a7 7 0 014 6.38 1 1 0 002 0 9 9 0 00-4.23-7.68z"/></symbol></svg>